<?xml version="1.0" standalone="no"?>
<!DOCTYPE svg PUBLIC "-//W3C//DTD SVG 20010904//EN"
 "http://www.w3.org/TR/2001/REC-SVG-20010904/DTD/svg10.dtd">
<svg version="1.0" xmlns="http://www.w3.org/2000/svg"
 width="459.000000pt" height="459.000000pt" viewBox="0 0 459.000000 459.000000"
 preserveAspectRatio="xMidYMid meet">
<metadata>
Created by potrace 1.11, written by Peter Selinger 2001-2013
</metadata>
<g transform="translate(0.000000,459.000000) scale(0.100000,-0.100000)"
fill="#000000" stroke="none">
<path d="M2159 4586 c-2 -2 -40 -6 -85 -10 -347 -27 -737 -165 -1044 -369
-440 -294 -753 -710 -925 -1232 -96 -292 -127 -702 -76 -1030 85 -547 359
-1034 788 -1402 63 -54 203 -157 254 -188 401 -239 769 -346 1199 -349 273 -2
461 25 699 99 811 251 1412 919 1575 1750 33 166 38 224 41 427 2 170 -1 215
-26 373 -110 709 -574 1350 -1214 1677 -231 118 -519 210 -730 234 -33 3 -69
8 -80 11 -25 5 -371 14 -376 9z"/>
</g>
</svg>
